<mxfile host="Electron" agent="Mozilla/5.0 (Windows NT 10.0; Win64; x64) AppleWebKit/537.36 (KHTML, like Gecko) draw.io/24.7.8 Chrome/128.0.6613.36 Electron/32.0.1 Safari/537.36" version="24.7.8">
  <diagram name="Seite-1" id="5sJTAsk7MfTJRoiNSE8s">
    <mxGraphModel dx="1728" dy="1003" grid="1" gridSize="10" guides="1" tooltips="1" connect="1" arrows="1" fold="1" page="1" pageScale="1" pageWidth="827" pageHeight="1169" math="0" shadow="0">
      <root>
        <mxCell id="0" />
        <mxCell id="1" parent="0" />
        <mxCell id="i8m2Baq9iSb70j3OWXeA-14" style="edgeStyle=orthogonalEdgeStyle;rounded=0;orthogonalLoop=1;jettySize=auto;html=1;entryX=0.5;entryY=0;entryDx=0;entryDy=0;" parent="1" source="i8m2Baq9iSb70j3OWXeA-9" target="i8m2Baq9iSb70j3OWXeA-11" edge="1">
          <mxGeometry relative="1" as="geometry">
            <Array as="points">
              <mxPoint x="220" y="260" />
              <mxPoint x="120" y="260" />
            </Array>
          </mxGeometry>
        </mxCell>
        <mxCell id="i8m2Baq9iSb70j3OWXeA-16" style="edgeStyle=orthogonalEdgeStyle;rounded=0;orthogonalLoop=1;jettySize=auto;html=1;entryX=0.5;entryY=0;entryDx=0;entryDy=0;" parent="1" source="i8m2Baq9iSb70j3OWXeA-9" target="i8m2Baq9iSb70j3OWXeA-13" edge="1">
          <mxGeometry relative="1" as="geometry">
            <Array as="points">
              <mxPoint x="220" y="260" />
              <mxPoint x="320" y="260" />
            </Array>
          </mxGeometry>
        </mxCell>
        <mxCell id="i8m2Baq9iSb70j3OWXeA-18" value="either" style="edgeLabel;html=1;align=center;verticalAlign=middle;resizable=0;points=[];fontFamily=Courier New;fontStyle=1" parent="i8m2Baq9iSb70j3OWXeA-16" vertex="1" connectable="0">
          <mxGeometry x="-0.2265" y="-2" relative="1" as="geometry">
            <mxPoint x="-10" y="-22" as="offset" />
          </mxGeometry>
        </mxCell>
        <mxCell id="4LysivoQMQaz0-7sHc5p-4" style="edgeStyle=orthogonalEdgeStyle;rounded=0;orthogonalLoop=1;jettySize=auto;html=1;entryX=0.5;entryY=0;entryDx=0;entryDy=0;" edge="1" parent="1" source="i8m2Baq9iSb70j3OWXeA-9" target="4LysivoQMQaz0-7sHc5p-3">
          <mxGeometry relative="1" as="geometry">
            <Array as="points">
              <mxPoint x="220" y="220" />
              <mxPoint x="420" y="220" />
            </Array>
          </mxGeometry>
        </mxCell>
        <mxCell id="i8m2Baq9iSb70j3OWXeA-9" value="SyncActuator" style="rounded=0;whiteSpace=wrap;html=1;fontFamily=Courier New;fontStyle=1;fillColor=#ffe6cc;strokeColor=#d79b00;" parent="1" vertex="1">
          <mxGeometry x="160" y="160" width="120" height="40" as="geometry" />
        </mxCell>
        <mxCell id="4LysivoQMQaz0-7sHc5p-13" style="edgeStyle=orthogonalEdgeStyle;rounded=0;orthogonalLoop=1;jettySize=auto;html=1;entryX=0.5;entryY=0;entryDx=0;entryDy=0;" edge="1" parent="1" source="i8m2Baq9iSb70j3OWXeA-11" target="4LysivoQMQaz0-7sHc5p-12">
          <mxGeometry relative="1" as="geometry" />
        </mxCell>
        <mxCell id="i8m2Baq9iSb70j3OWXeA-11" value="SyncActuatorBlocking" style="rounded=0;whiteSpace=wrap;html=1;fontFamily=Courier New;fontStyle=1;fillColor=#f8cecc;strokeColor=#b85450;" parent="1" vertex="1">
          <mxGeometry x="40" y="280" width="160" height="40" as="geometry" />
        </mxCell>
        <mxCell id="i8m2Baq9iSb70j3OWXeA-13" value="SyncActuatorNB" style="rounded=0;whiteSpace=wrap;html=1;fontFamily=Courier New;fontStyle=1;fillColor=#e1d5e7;strokeColor=#9673a6;" parent="1" vertex="1">
          <mxGeometry x="240" y="280" width="160" height="40" as="geometry" />
        </mxCell>
        <mxCell id="kYIR0LsXEl2sS22cFi04-1" value="AsyncActuator" style="rounded=0;whiteSpace=wrap;html=1;fontFamily=Courier New;fontStyle=1;fillColor=#ffe6cc;strokeColor=#d79b00;" parent="1" vertex="1">
          <mxGeometry x="160" y="80" width="120" height="40" as="geometry" />
        </mxCell>
        <mxCell id="4LysivoQMQaz0-7sHc5p-10" style="edgeStyle=orthogonalEdgeStyle;rounded=0;orthogonalLoop=1;jettySize=auto;html=1;entryX=0.5;entryY=0;entryDx=0;entryDy=0;" edge="1" parent="1" source="4LysivoQMQaz0-7sHc5p-1" target="4LysivoQMQaz0-7sHc5p-7">
          <mxGeometry relative="1" as="geometry" />
        </mxCell>
        <mxCell id="4LysivoQMQaz0-7sHc5p-16" style="edgeStyle=orthogonalEdgeStyle;rounded=0;orthogonalLoop=1;jettySize=auto;html=1;entryX=0.25;entryY=0;entryDx=0;entryDy=0;" edge="1" parent="1" source="4LysivoQMQaz0-7sHc5p-1" target="4LysivoQMQaz0-7sHc5p-11">
          <mxGeometry relative="1" as="geometry">
            <mxPoint x="720" y="280" as="targetPoint" />
            <Array as="points">
              <mxPoint x="520" y="240" />
              <mxPoint x="680" y="240" />
            </Array>
          </mxGeometry>
        </mxCell>
        <mxCell id="4LysivoQMQaz0-7sHc5p-1" value="ActuatorGroup" style="rounded=0;whiteSpace=wrap;html=1;fontFamily=Courier New;fontStyle=1;fillColor=#d5e8d4;strokeColor=#82b366;" vertex="1" parent="1">
          <mxGeometry x="440" y="80" width="160" height="40" as="geometry" />
        </mxCell>
        <mxCell id="4LysivoQMQaz0-7sHc5p-18" style="edgeStyle=orthogonalEdgeStyle;rounded=0;orthogonalLoop=1;jettySize=auto;html=1;entryX=0.5;entryY=0;entryDx=0;entryDy=0;" edge="1" parent="1" source="4LysivoQMQaz0-7sHc5p-2" target="4LysivoQMQaz0-7sHc5p-11">
          <mxGeometry relative="1" as="geometry" />
        </mxCell>
        <mxCell id="4LysivoQMQaz0-7sHc5p-2" value="AdvancedActuator" style="rounded=0;whiteSpace=wrap;html=1;fontFamily=Courier New;fontStyle=1;fillColor=#ffe6cc;strokeColor=#d79b00;" vertex="1" parent="1">
          <mxGeometry x="660" y="160" width="120" height="40" as="geometry" />
        </mxCell>
        <mxCell id="4LysivoQMQaz0-7sHc5p-17" style="edgeStyle=orthogonalEdgeStyle;rounded=0;orthogonalLoop=1;jettySize=auto;html=1;entryX=0.25;entryY=0;entryDx=0;entryDy=0;" edge="1" parent="1" source="4LysivoQMQaz0-7sHc5p-3" target="4LysivoQMQaz0-7sHc5p-6">
          <mxGeometry relative="1" as="geometry">
            <Array as="points">
              <mxPoint x="440" y="410" />
              <mxPoint x="440" y="410" />
            </Array>
          </mxGeometry>
        </mxCell>
        <mxCell id="4LysivoQMQaz0-7sHc5p-3" value="StepperActuator" style="rounded=0;whiteSpace=wrap;html=1;fontFamily=Courier New;fontStyle=1;fillColor=#ffe6cc;strokeColor=#d79b00;" vertex="1" parent="1">
          <mxGeometry x="360" y="360" width="120" height="40" as="geometry" />
        </mxCell>
        <mxCell id="4LysivoQMQaz0-7sHc5p-6" value="StepperActuatorGroup" style="rounded=0;whiteSpace=wrap;html=1;fontFamily=Courier New;fontStyle=1;fillColor=#d5e8d4;strokeColor=#82b366;" vertex="1" parent="1">
          <mxGeometry x="400" y="440" width="160" height="40" as="geometry" />
        </mxCell>
        <mxCell id="4LysivoQMQaz0-7sHc5p-8" style="edgeStyle=orthogonalEdgeStyle;rounded=0;orthogonalLoop=1;jettySize=auto;html=1;" edge="1" parent="1" source="4LysivoQMQaz0-7sHc5p-7">
          <mxGeometry relative="1" as="geometry">
            <mxPoint x="520" y="440" as="targetPoint" />
            <Array as="points">
              <mxPoint x="520" y="440" />
            </Array>
          </mxGeometry>
        </mxCell>
        <mxCell id="4LysivoQMQaz0-7sHc5p-14" style="edgeStyle=orthogonalEdgeStyle;rounded=0;orthogonalLoop=1;jettySize=auto;html=1;entryX=0.5;entryY=0;entryDx=0;entryDy=0;" edge="1" parent="1" source="4LysivoQMQaz0-7sHc5p-7" target="4LysivoQMQaz0-7sHc5p-12">
          <mxGeometry relative="1" as="geometry">
            <Array as="points">
              <mxPoint x="520" y="340" />
              <mxPoint x="120" y="340" />
            </Array>
          </mxGeometry>
        </mxCell>
        <mxCell id="4LysivoQMQaz0-7sHc5p-7" value="SyncActuatorGroup" style="rounded=0;whiteSpace=wrap;html=1;fontFamily=Courier New;fontStyle=1;fillColor=#d5e8d4;strokeColor=#82b366;" vertex="1" parent="1">
          <mxGeometry x="440" y="280" width="160" height="40" as="geometry" />
        </mxCell>
        <mxCell id="4LysivoQMQaz0-7sHc5p-11" value="AdvancedActuatorGroup" style="rounded=0;whiteSpace=wrap;html=1;fontFamily=Courier New;fontStyle=1;fillColor=#d5e8d4;strokeColor=#82b366;" vertex="1" parent="1">
          <mxGeometry x="640" y="280" width="160" height="40" as="geometry" />
        </mxCell>
        <mxCell id="4LysivoQMQaz0-7sHc5p-12" value="SyncActuatorBlockingGroup" style="rounded=0;whiteSpace=wrap;html=1;fontFamily=Courier New;fontStyle=1;fillColor=#d5e8d4;strokeColor=#82b366;" vertex="1" parent="1">
          <mxGeometry x="20" y="400" width="200" height="40" as="geometry" />
        </mxCell>
        <mxCell id="4LysivoQMQaz0-7sHc5p-19" value="&lt;font face=&quot;Courier New&quot;&gt;&lt;span style=&quot;font-size: 15px;&quot;&gt;&lt;b&gt;syact - Actuator traits (v0.14.0)&lt;/b&gt;&lt;/span&gt;&lt;/font&gt;" style="text;html=1;align=left;verticalAlign=middle;whiteSpace=wrap;rounded=0;" vertex="1" parent="1">
          <mxGeometry x="20" y="20" width="360" height="40" as="geometry" />
        </mxCell>
      </root>
    </mxGraphModel>
  </diagram>
</mxfile>
